<svg width="10" height="11" viewBox="0 0 10 11" fill="none" xmlns="http://www.w3.org/2000/svg">
<path d="M9.12186 6.086H5.53986V9.668C5.53986 9.824 5.50386 9.95 5.43186 10.046C5.35986 10.142 5.28786 10.202 5.21586 10.226C5.14386 10.25 5.07186 10.262 4.99986 10.262C4.92786 10.262 4.85586 10.25 4.78386 10.226C4.71186 10.202 4.63986 10.142 4.56786 10.046C4.49586 9.95 4.45986 9.824 4.45986 9.668V6.086H0.877859C0.481859 6.086 0.283859 5.906 0.283859 5.546C0.283859 5.186 0.481859 5.006 0.877859 5.006H4.45986V1.424C4.45986 1.268 4.49586 1.142 4.56786 1.046C4.63986 0.949999 4.71186 0.889999 4.78386 0.866C4.85586 0.842 4.92786 0.83 4.99986 0.83C5.07186 0.83 5.14386 0.842 5.21586 0.866C5.28786 0.889999 5.35986 0.949999 5.43186 1.046C5.50386 1.142 5.53986 1.268 5.53986 1.424V5.006H9.12186C9.51786 5.006 9.71586 5.186 9.71586 5.546C9.71586 5.906 9.51786 6.086 9.12186 6.086Z" fill="#5E626B"/>
</svg>
